Coordinates
version=1
nRows=21
nColumns=22
inDegrees=yes

Units are S.I. units (second, meters, Newtons, ...)
If the header above contains a line with 'inDegrees', this indicates whether rotational values are in degrees (yes) or radians (no).

endheader
time	pelvis_tilt	pelvis_list	pelvis_rotation	pelvis_tx	pelvis_ty	pelvis_tz	hip_flexion_r	hip_adduction_r	hip_rotation_r	knee_angle_r	ankle_angle_r	subtalar_angle_r	hip_flexion_l	hip_adduction_l	hip_rotation_l	knee_angle_l	ankle_angle_l	subtalar_angle_l	lumbar_extension	lumbar_bending	lumbar_rotation
      0.01000000	      0.08130759	      0.42742070	    -23.57681322	     -0.95392130	      0.90575474	     -0.36670603	     -5.69394247	     -0.52232750	     -3.49637715	     -2.28127169	     16.43653178	      0.87130733	      1.00020100	     -2.09231550	    -13.64027484	    -14.05198183	     14.72312989	      1.89302624	     -3.91238762	     -2.09723314	      3.86409688
      0.02000000	      0.07886487	      0.43472096	    -23.54987716	     -0.95384664	      0.90574691	     -0.36675947	     -5.70647410	     -0.52667939	     -3.51793927	     -2.26083971	     16.42985539	      0.85408929	      1.01445137	     -2.08337191	    -13.61032865	    -14.06753185	     14.72040158	      1.90330751	     -3.92695117	     -2.09909970	      3.88343504
      0.03000000	      0.06721383	      0.44193888	    -23.48479053	     -0.95369647	      0.90572723	     -0.36684628	     -5.73066730	     -0.52274580	     -3.58337153	     -2.21686326	     16.40649850	      0.80874783	      1.03540247	     -2.07504435	    -13.52822752	    -14.07454087	     14.72388070	      1.92069320	     -3.92773205	     -2.09149239	      3.83818021
      0.04000000	      0.06026324	      0.44749489	    -23.46528540	     -0.95353631	      0.90570935	     -0.36687033	     -5.73623432	     -0.52651907	     -3.58614427	     -2.21528964	     16.40651273	      0.80727473	      1.03769628	     -2.06913915	    -13.52743660	    -14.07428721	     14.72441397	      1.92097550	     -3.93001148	     -2.08210160	      3.84825259
      0.05000000	      0.04136272	      0.46212311	    -23.39592874	     -0.95329007	      0.90566238	     -0.36692416	     -5.77258422	     -0.52504975	     -3.67173360	     -2.14087389	     16.38541972	      0.77533881	      1.06256514	     -2.05553843	    -13.43440942	    -14.08242515	     14.74286584	      1.92374540	     -3.90675231	     -2.08269056	      3.83026934
      0.06000000	      0.02911145	      0.46890398	    -23.36711795	     -0.95304786	      0.90562575	     -0.36691674	     -5.79257540	     -0.52400976	     -3.70377740	     -2.11226696	     16.38781892	      0.76789624	      1.06511943	     -2.05060345	    -13.41429901	    -14.08174128	     14.74611968	      1.92267953	     -3.89038092	     -2.07592561	      3.85612227
      0.07000000	      0.01469922	      0.47956436	    -23.32840211	     -0.95276395	      0.90558066	     -0.36691809	     -5.81969354	     -0.52674176	     -3.74343188	     -2.06960697	     16.38553057	      0.75962317	      1.06539333	     -2.04070810	    -13.38695455	    -14.07061456	     14.75708362	      1.92221964	     -3.86646810	     -2.07122399	      3.86669267
      0.08000000	      0.00369503	      0.48963938	    -23.28498046	     -0.95244520	      0.90553728	     -0.36692155	     -5.85558861	     -0.53044621	     -3.78931015	     -2.02216167	     16.37895987	      0.75010576	      1.05800296	     -2.02780978	    -13.34453561	    -14.05540993	     14.77138192	      1.92203037	     -3.84048639	     -2.06548668	      3.86410599
      0.09000000	     -0.00202218	      0.49431263	    -23.26338961	     -0.95216322	      0.90550312	     -0.36691855	     -5.86784628	     -0.53627209	     -3.78885544	     -2.02732123	     16.37814916	      0.74951148	      1.04992345	     -2.02112939	    -13.34401768	    -14.05743595	     14.77229804	      1.92204970	     -3.83033821	     -2.05401170	      3.86876496
      0.10000000	      0.00625827	      0.50172752	    -23.18911746	     -0.95175734	      0.90548206	     -0.36695460	     -5.95195875	     -0.54330465	     -3.87618701	     -1.94200312	     16.35870685	      0.73376392	      1.00677947	     -1.99378052	    -13.23794446	    -14.01199138	     14.80135237	      1.92619150	     -3.82033471	     -2.05263879	      3.82597394
      0.11000000	     -0.00281294	      0.50299961	    -23.16368952	     -0.95139963	      0.90543897	     -0.36692944	     -5.98066741	     -0.54320064	     -3.90104207	     -1.92169289	     16.36808902	      0.73221852	      0.98519565	     -1.99053469	    -13.24059191	    -13.99272574	     14.80181794	      1.92591077	     -3.79646187	     -2.03836517	      3.84484720
      0.12000000	     -0.00516455	      0.50689553	    -23.13578643	     -0.95100564	      0.90540015	     -0.36690572	     -6.02322786	     -0.54875613	     -3.93198572	     -1.89078335	     16.37704418	      0.73004055	      0.95083557	     -1.97854144	    -13.23114826	    -13.96332667	     14.81486038	      1.92916476	     -3.77446091	     -2.02710935	      3.85167477
      0.13000000	      0.01212390	      0.50868783	    -23.10234279	     -0.95058926	      0.90538758	     -0.36688340	     -6.09096597	     -0.56010336	     -3.97055446	     -1.85430290	     16.38628333	      0.72661109	      0.88862476	     -1.95699010	    -13.19989405	    -13.92162045	     14.83848458	      1.93743777	     -3.77388961	     -2.02378638	      3.84176026
      0.14000000	      0.00817885	      0.51250353	    -23.08418230	     -0.95024589	      0.90534787	     -0.36686024	     -6.10605018	     -0.56788312	     -3.96733245	     -1.86492176	     16.38593434	      0.72649416	      0.87468722	     -1.95128238	    -13.20015087	    -13.92751133	     14.83861302	      1.93778896	     -3.76168736	     -2.01278345	      3.84544135
      0.15000000	      0.08295380	      0.50574430	    -23.04281816	     -0.94980857	      0.90541731	     -0.36684554	     -6.23915344	     -0.59357135	     -4.03326278	     -1.82548946	     16.40836923	      0.72219366	      0.73817182	     -1.90754645	    -13.13602112	    -13.85882447	     14.86354644	      1.95469244	     -3.83308164	     -2.02495616	      3.81688422
      0.16000000	      0.07696950	      0.50955358	    -23.02287698	     -0.94947141	      0.90537805	     -0.36681362	     -6.25316547	     -0.59877336	     -4.03066431	     -1.83421760	     16.40893046	      0.72229992	      0.72546403	     -1.90324393	    -13.13999978	    -13.86023294	     14.86296364	      1.95471058	     -3.82050545	     -2.01589819	      3.82099553
      0.17000000	      0.13651244	      0.50911880	    -22.98863203	     -0.94906290	      0.90542678	     -0.36677933	     -6.35955268	     -0.62383997	     -4.08968663	     -1.80556719	     16.44361610	      0.72275232	      0.60918614	     -1.86496666	    -13.10955583	    -13.79463274	     14.87314978	      1.96460289	     -3.87540967	     -2.03187724	      3.80100028
      0.18000000	      0.13093336	      0.51351966	    -22.96939076	     -0.94874600	      0.90539041	     -0.36673866	     -6.37153901	     -0.62825752	     -4.08605052	     -1.81513028	     16.44372516	      0.72283450	      0.59779333	     -1.86084230	    -13.11210243	    -13.79744191	     14.87293298	      1.96463711	     -3.86562333	     -2.02449903	      3.80420234
      0.19000000	      0.15410264	      0.52119984	    -22.93597363	     -0.94837403	      0.90538685	     -0.36669759	     -6.42802773	     -0.64491813	     -4.13183343	     -1.80141306	     16.47806053	      0.71966834	      0.53578834	     -1.83545960	    -13.09956613	    -13.75606022	     14.88942976	      1.97000734	     -3.87872232	     -2.03364193	      3.77839964
      0.20000000	      0.14971860	      0.52593084	    -22.91219570	     -0.94808316	      0.90535491	     -0.36666574	     -6.43913294	     -0.64882530	     -4.12738764	     -1.81227638	     16.47808124	      0.71947143	      0.52705592	     -1.83088780	    -13.09962119	    -13.75990932	     14.88917694	      1.97018991	     -3.87544394	     -2.02912333	      3.78427582
      0.21000000	      0.19834837	      0.53122399	    -22.85800311	     -0.94775991	      0.90538997	     -0.36666600	     -6.51453410	     -0.67126834	     -4.19699502	     -1.81150097	     16.51937913	      0.70055721	      0.45294986	     -1.79552144	    -13.03293507	    -13.73139669	     14.89338150	      1.97726692	     -3.93275775	     -2.05225087	      3.75328873
